<svg width="119" height="28" viewBox="0 0 119 28" fill="none" xmlns="http://www.w3.org/2000/svg">
<path fill-rule="evenodd" clip-rule="evenodd" d="M70.879 7.38154C70.3125 7.6326 69.9533 8.20058 69.9694 8.82004V8.84004C69.9656 9.24695 70.1319 9.63697 70.4281 9.91604C70.7242 10.1951 71.1234 10.3379 71.5294 10.31C72.1489 10.2977 72.6998 9.91285 72.9246 9.3354C73.1494 8.75795 73.0037 8.10193 72.5556 7.67393C72.1075 7.24593 71.4455 7.13048 70.879 7.38154ZM37.3994 8.07004H34.3994V20.2H37.3994V8.07004ZM43.2694 10.83C40.4294 10.83 38.5894 12.62 38.5894 15.62C38.5894 18.67 40.3894 20.42 43.2694 20.42C46.1494 20.42 47.9494 18.62 47.9494 15.62C47.9494 12.62 46.1094 10.83 43.2694 10.83ZM44.9394 15.62C44.9394 13.97 44.2894 13 43.2694 13C42.2494 13 41.6094 14 41.6094 15.62C41.6094 17.24 42.2394 18.22 43.2694 18.22C44.2994 18.22 44.9394 17.3 44.9394 15.63V15.62ZM51.9594 20.79H49.0794V20.8C49.2494 22.46 50.8994 23.65 53.5494 23.65C56.3994 23.65 58.3294 22.29 58.3294 20.1V11H55.3294V12.67C54.8669 11.5648 53.7666 10.8631 52.5694 10.91C50.2694 10.91 48.8894 12.72 48.8894 15.59C48.8894 18.46 50.3394 20.13 52.5294 20.13C53.6891 20.193 54.7703 19.5435 55.2594 18.49H55.3194V20.17C55.3194 21.07 54.7194 21.69 53.5794 21.69C52.8997 21.7814 52.2408 21.4154 51.9594 20.79ZM55.3294 15.61C55.3294 14.15 54.6594 13.23 53.5994 13.23C52.5394 13.23 51.8894 14.14 51.8894 15.61C51.8894 17.08 52.5294 17.91 53.5994 17.91C54.6694 17.91 55.3294 17.1 55.3294 15.62V15.61ZM64.1394 10.82C61.2994 10.82 59.4594 12.61 59.4594 15.61V15.62C59.4594 18.67 61.2494 20.41 64.1394 20.41C67.0294 20.41 68.8294 18.61 68.8294 15.61C68.8294 12.61 66.9794 10.82 64.1394 10.82ZM65.8094 15.61C65.8094 13.96 65.1594 12.99 64.1394 12.99C63.1194 12.99 62.5294 14 62.5294 15.63C62.5294 17.26 63.1594 18.23 64.1794 18.23C65.1994 18.23 65.8094 17.3 65.8094 15.63V15.61ZM69.9694 11.02H72.9694V20.2H69.9694V11.02ZM80.2494 20.32C82.5294 20.32 83.8594 18.61 83.8594 15.61L83.8994 15.63C83.8994 12.63 82.5294 10.91 80.2294 10.87C79.0226 10.8162 77.9112 11.5238 77.4494 12.64H77.3894V11H74.3894V23.14H77.3894V18.62H77.4494C77.9336 19.718 79.0518 20.3969 80.2494 20.32ZM80.8594 15.61C80.8594 14.15 80.1894 13.22 79.1394 13.22C78.0894 13.22 77.4194 14.16 77.4094 15.61C77.3994 17.06 78.0894 17.99 79.1394 17.99C80.1894 17.99 80.8594 17.08 80.8594 15.63V15.61ZM93.0794 13.88C93.0094 11.99 91.4994 10.81 89.0094 10.81V10.83C86.5294 10.83 84.9194 12 84.8994 13.8C84.8994 15.2 85.8394 16.15 87.6294 16.52L89.3594 16.89C90.0794 17.04 90.3594 17.14 90.3594 17.62C90.3594 18.1 89.9594 18.39 89.0794 18.39C88.1994 18.39 87.6594 17.99 87.5694 17.31H84.6794C84.8094 19.18 86.4794 20.4 89.0294 20.4C91.5794 20.4 93.3094 19.18 93.3094 17.28C93.3094 15.89 92.5294 15.15 90.6994 14.76L88.7794 14.37C88.1094 14.23 87.7794 14.08 87.7794 13.61C87.7794 13.14 88.1494 12.82 88.9794 12.82C89.8094 12.82 90.3494 13.23 90.3494 13.88H93.0794ZM103.319 20.18H100.429V18.47H100.369C100.042 19.6529 98.9348 20.448 97.7094 20.38C96.7872 20.4325 95.8875 20.0826 95.2431 19.4208C94.5986 18.7591 94.2726 17.8505 94.3494 16.93V11H97.3494V16.24C97.3494 17.33 97.9094 17.91 98.8394 17.91C99.2806 17.9109 99.7007 17.7213 99.9919 17.3899C100.283 17.0585 100.417 16.6174 100.359 16.18V11H103.359L103.319 20.18ZM107.669 11H104.769L104.719 20.2H107.719V14.79C107.674 14.4096 107.793 14.0278 108.047 13.741C108.301 13.4543 108.666 13.2902 109.049 13.29C109.869 13.29 110.319 13.79 110.319 14.71V20.2H113.169V14.77C113.12 14.3942 113.236 14.0155 113.487 13.7317C113.739 13.4479 114.1 13.2868 114.479 13.29C115.319 13.29 115.769 13.75 115.769 14.75V20.2H118.769V13.95C118.829 13.1267 118.537 12.3165 117.965 11.7215C117.393 11.1264 116.594 10.8023 115.769 10.83C114.483 10.7748 113.323 11.5978 112.949 12.83H112.889C112.69 11.6009 111.581 10.7306 110.339 10.83C109.129 10.8077 108.057 11.6049 107.729 12.77H107.669V11Z" fill="#696871"/>
<path fill-rule="evenodd" clip-rule="evenodd" d="M24.0094 5.40002C24.8269 6.37195 25.5005 7.45638 26.0094 8.62002C26.7507 10.3166 27.132 12.1485 27.1294 14C27.1239 21.4734 21.0727 27.5335 13.5994 27.55C11.8605 27.5491 10.1384 27.2094 8.52939 26.55C7.38174 26.094 6.30439 25.4779 5.32939 24.72C1.18237 21.5596 -0.77959 16.2974 0.286103 11.1935C1.35179 6.08949 5.25548 2.05206 10.3207 0.8151C15.3858 -0.421862 20.7111 1.36178 24.0094 5.40002ZM18.1094 4.19002C16.6936 3.53116 15.1509 3.18985 13.5894 3.19002L13.5994 3.17002C9.89642 3.16726 6.45021 5.0618 4.46836 8.18977C2.4865 11.3177 2.24534 15.243 3.82939 18.59C4.28108 18.1155 4.55943 17.5024 4.61939 16.85C4.9831 14.3374 6.9568 12.3637 9.46939 12C10.887 11.8715 12.0191 10.7644 12.1794 9.35002C12.5431 6.83743 14.5168 4.86373 17.0294 4.50002C17.4012 4.44337 17.7642 4.33919 18.1094 4.19002ZM5.31939 21C5.35939 20.9634 5.39939 20.9278 5.4394 20.8922L5.43946 20.8922C5.51943 20.8211 5.59941 20.75 5.67939 20.67C6.56904 19.8075 7.1401 18.6689 7.29939 17.44C7.36397 16.7493 7.67239 16.1041 8.16939 15.62C8.64763 15.1222 9.29136 14.8163 9.97939 14.76C12.492 14.3963 14.4657 12.4226 14.8294 9.91002C14.8726 9.18753 15.1827 8.50686 15.6994 8.00002C16.1894 7.51187 16.8393 7.21712 17.5294 7.17002C18.6533 7.01538 19.7015 6.51573 20.5294 5.74002C21.472 6.52209 22.2707 7.46292 22.8894 8.52002C22.8514 8.57137 22.8078 8.61833 22.7594 8.66002C22.2821 9.16222 21.6392 9.47478 20.9494 9.54002C18.4337 9.89746 16.4568 11.8743 16.0994 14.39C15.9541 15.8094 14.8293 16.93 13.4094 17.07C10.8898 17.4309 8.90579 19.4027 8.52939 21.92C8.47557 22.4088 8.30773 22.878 8.03939 23.29C7.01338 22.6809 6.09447 21.9072 5.31939 21ZM10.5894 24.44C11.5648 24.7197 12.5747 24.8611 13.5894 24.86V24.81C16.9385 24.797 20.0927 23.2338 22.1315 20.5768C24.1703 17.9197 24.8637 14.4683 24.0094 11.23C23.2502 11.7668 22.3714 12.1101 21.4494 12.23C20.0334 12.3745 18.9139 13.494 18.7694 14.91C18.4046 17.4257 16.4259 19.4004 13.9094 19.76C12.4934 19.9045 11.3739 21.024 11.2294 22.44C11.14 23.1402 10.923 23.818 10.5894 24.44Z" fill="#696871"/>
</svg>
