<svg width="125" height="30" viewBox="0 0 125 30" fill="none" xmlns="http://www.w3.org/2000/svg">
<path d="M27.2594 10.71C27.6194 10.71 27.7394 10.84 27.7394 11.19V19.11H31.8094C32.1594 19.11 32.2894 19.24 32.2894 19.59V20.29C32.2894 20.64 32.1594 20.77 31.8094 20.77H26.4494C26.0994 20.77 25.9594 20.64 25.9594 20.29V11.19C25.9594 10.84 26.0994 10.71 26.4494 10.71H27.2594Z" fill="#696871"/>
<path fill-rule="evenodd" clip-rule="evenodd" d="M39.8394 10.5C37.2994 10.5 35.8394 11.89 35.8394 14.2V17.28C35.8394 19.59 37.3094 20.98 39.8394 20.98C42.3694 20.98 43.8394 19.59 43.8394 17.28V14.2C43.8394 11.89 42.3794 10.5 39.8394 10.5ZM39.8894 12.2C41.3494 12.2 42.1594 12.9 42.1594 14.2V17.3C42.1594 18.58 41.3494 19.3 39.8894 19.3C38.4294 19.3 37.6294 18.61 37.6294 17.3V14.2C37.6294 12.91 38.4294 12.2 39.8894 12.2Z" fill="#696871"/>
<path d="M55.7494 15.26C56.1394 15.26 56.2294 15.39 56.2294 15.74V17.64C56.2508 18.5465 55.8612 19.414 55.1694 20C54.3211 20.6755 53.2515 21.0107 52.1694 20.94C49.5794 20.94 48.1694 19.55 48.1694 17.24V14.14C48.1694 11.86 49.6294 10.46 52.1694 10.46C54.1694 10.46 55.4694 11.25 56.0194 12.83C56.0818 12.9504 56.0837 13.0931 56.0247 13.2152C55.9656 13.3372 55.8525 13.4242 55.7194 13.45L54.9394 13.72C54.5994 13.84 54.4594 13.77 54.3394 13.42C53.9986 12.5413 53.1049 12.0059 52.1694 12.12C50.6994 12.12 49.8994 12.83 49.8994 14.12V17.3C49.8994 18.61 50.7094 19.3 52.1694 19.3C53.6294 19.3 54.5294 18.63 54.5294 17.65V16.91H52.3594C51.9994 16.91 51.8694 16.77 51.8694 16.42V15.74C51.8694 15.39 51.9994 15.26 52.3594 15.26H55.7494Z" fill="#696871"/>
<path fill-rule="evenodd" clip-rule="evenodd" d="M64.3594 10.5C61.8194 10.5 60.3594 11.89 60.3594 14.2V17.28C60.3594 19.59 61.8294 20.98 64.3594 20.98C66.8894 20.98 68.3594 19.59 68.3594 17.28V14.2C68.3594 11.89 66.8994 10.5 64.3594 10.5ZM64.4094 12.2C65.8594 12.2 66.6694 12.9 66.6694 14.2V17.3C66.6694 18.58 65.8694 19.3 64.4094 19.3C62.9494 19.3 62.1394 18.61 62.1394 17.3V14.2C62.1394 12.91 62.9594 12.2 64.4094 12.2Z" fill="#696871"/>
<path d="M73.0694 11C73.0694 10.78 73.1394 10.71 73.3594 10.71H73.8194C74.0394 10.71 74.0894 10.78 74.0894 11V20.48C74.0894 20.7 74.0894 20.77 73.8194 20.77H73.3594C73.1394 20.77 73.0694 20.7 73.0694 20.48V11Z" fill="#696871"/>
<path fill-rule="evenodd" clip-rule="evenodd" d="M86.3394 13.85C86.3394 12.1158 84.9336 10.71 83.1994 10.71H79.4694C79.2594 10.71 79.1794 10.78 79.1794 11V20.48C79.1794 20.7 79.2594 20.77 79.4694 20.77H79.9394C80.1494 20.77 80.1994 20.7 80.1994 20.48V16.99H83.1994C84.9336 16.99 86.3394 15.5842 86.3394 13.85ZM84.9973 14.91C84.6079 15.5845 83.8882 16 83.1094 16H80.1094V11.64H83.1094C83.8882 11.64 84.6079 12.0555 84.9973 12.73C85.3867 13.4045 85.3867 14.2355 84.9973 14.91Z" fill="#696871"/>
<path d="M94.1494 10.51C95.7348 10.335 97.2471 11.2213 97.8694 12.69C97.9494 12.85 97.8694 12.98 97.7094 13.06L97.2694 13.26C97.0894 13.33 97.0194 13.32 96.9094 13.13C96.4445 12.0408 95.3283 11.3775 94.1494 11.49C92.4594 11.49 91.5394 12.16 91.5394 13.36C91.5191 14.1183 92.061 14.7755 92.8094 14.9C93.3472 15.0754 93.9049 15.1829 94.4694 15.22C95.1527 15.2565 95.8268 15.3946 96.4694 15.63C97.4847 15.9513 98.1358 16.9404 98.0294 18C98.0294 19.87 96.6694 21 94.1694 21C92.4797 21.1933 90.8842 20.1811 90.3394 18.57C90.3036 18.4978 90.302 18.4135 90.3349 18.34C90.3678 18.2665 90.4317 18.2115 90.5094 18.19L90.9494 18.03C91.0194 18.0014 91.0983 18.0035 91.1668 18.0358C91.2352 18.0681 91.2869 18.1277 91.3094 18.2C91.7684 19.3593 92.9256 20.0876 94.1694 20C96.0594 20 96.9894 19.34 96.9894 18C97.0257 17.2726 96.5309 16.6255 95.8194 16.47C95.3019 16.3157 94.7684 16.2217 94.2294 16.19L93.1494 16.05C92.8114 15.9783 92.4775 15.8881 92.1494 15.78C91.8252 15.6821 91.523 15.5225 91.2594 15.31C90.7224 14.8237 90.4292 14.1239 90.4594 13.4C90.5294 11.65 91.8394 10.51 94.1494 10.51Z" fill="#696871"/>
<path d="M103.419 17.35C103.508 18.818 104.724 19.9634 106.194 19.9634C107.665 19.9634 108.881 18.818 108.969 17.35V11C108.969 10.78 109.039 10.71 109.259 10.71H109.719C109.939 10.71 110.009 10.78 110.009 11V17.34C110.009 19.61 108.669 20.98 106.199 20.98C103.729 20.98 102.389 19.61 102.389 17.34V11C102.389 10.78 102.459 10.71 102.669 10.71H103.139C103.349 10.71 103.419 10.78 103.419 11V17.35Z" fill="#696871"/>
<path d="M123.809 10.71C124.029 10.71 124.099 10.78 124.099 11V20.48C124.099 20.7 124.029 20.77 123.809 20.77H123.389C123.179 20.77 123.109 20.7 123.109 20.48V14.71C123.109 13.8704 123.166 13.0318 123.279 12.2H123.219C122.907 12.9607 122.543 13.6991 122.129 14.41L119.979 18.2C119.926 18.3346 119.794 18.4221 119.649 18.42H119.369C119.222 18.4207 119.089 18.3343 119.029 18.2L116.849 14.37C116.462 13.6692 116.128 12.9405 115.849 12.19H115.789C115.892 13.0295 115.945 13.8743 115.949 14.72V20.48C115.949 20.7 115.879 20.77 115.659 20.77H115.269C115.049 20.77 114.979 20.7 114.979 20.48V11C114.979 10.78 115.049 10.71 115.269 10.71H115.629C115.798 10.6943 115.958 10.7864 116.029 10.94L119.529 17.16L123.009 11C123.119 10.79 123.179 10.76 123.399 10.76L123.809 10.71Z" fill="#696871"/>
<path fill-rule="evenodd" clip-rule="evenodd" d="M2.83938 1.69001V22C2.83938 22.2493 2.74034 22.4884 2.56406 22.6647C2.38778 22.841 2.14868 22.94 1.89938 22.94H1.67938C1.16023 22.94 0.73938 22.5192 0.73938 22V1.69001C0.744861 1.17477 1.16411 0.759981 1.67938 0.76001H1.89938C2.41465 0.759981 2.8339 1.17477 2.83938 1.69001ZM14.3697 14.5646C14.5682 14.3756 14.8356 14.2763 15.1094 14.29L15.0594 14.31C15.3504 14.2803 15.6398 14.3795 15.8514 14.5815C16.063 14.7835 16.1755 15.0679 16.1594 15.36V20.86C16.1594 21.4399 15.6893 21.91 15.1094 21.91C14.5295 21.91 14.0594 21.4399 14.0594 20.86V15.29C14.059 15.0159 14.1712 14.7537 14.3697 14.5646ZM17.3694 17.46C17.3694 16.9077 17.8171 16.46 18.3694 16.46C18.6587 16.4334 18.9453 16.534 19.1546 16.7356C19.3639 16.9372 19.4751 17.2199 19.4594 17.51V18.72C19.4594 19.2971 18.9915 19.765 18.4144 19.765C17.8372 19.765 17.3694 19.2971 17.3694 18.72V17.46ZM9.46938 25.78V18.55C9.15667 18.7877 8.77202 18.9112 8.37938 18.9C8.01921 18.8911 7.67034 18.7725 7.37938 18.56V25.78C7.37938 26.3571 7.84724 26.825 8.42438 26.825C9.00152 26.825 9.46938 26.3571 9.46938 25.78ZM5.10938 21.29C4.74955 21.2792 4.40121 21.1608 4.10938 20.95V28.2C4.10938 28.7799 4.57948 29.25 5.15938 29.25C5.73928 29.25 6.20938 28.7799 6.20938 28.2V21C5.88283 21.2111 5.49754 21.3127 5.10938 21.29ZM11.7894 16.43C11.4127 16.4274 11.046 16.3087 10.7394 16.09V23.36C10.7394 23.9399 11.2095 24.41 11.7894 24.41C12.3693 24.41 12.8394 23.9399 12.8394 23.36V16.1C12.5221 16.3363 12.1349 16.4595 11.7394 16.45L11.7894 16.43ZM5.21938 20.52H4.99938C4.48023 20.52 4.05938 20.0992 4.05938 19.58V4.11001C4.06486 3.59477 4.48411 3.17998 4.99938 3.18001H5.21938C5.73465 3.17998 6.1539 3.59477 6.15938 4.11001V19.6C6.15938 20.1192 5.73853 20.54 5.21938 20.54V20.52ZM8.29938 18.14H8.52938C9.043 18.14 9.45938 17.7236 9.45938 17.21V6.51001C9.45941 5.99474 9.04462 5.57549 8.52938 5.57001H8.29938C8.05099 5.57 7.81291 5.66935 7.63821 5.84593C7.46351 6.0225 7.36671 6.26163 7.36938 6.51001V17.21C7.36938 17.7236 7.78576 18.14 8.29938 18.14ZM11.8394 15.69H11.6294C11.1141 15.69 10.6949 15.2752 10.6894 14.76V9.00001C10.6728 8.74048 10.7644 8.48568 10.9426 8.29619C11.1207 8.10671 11.3693 7.99948 11.6294 8.00001H11.8494C12.3685 8.00001 12.7894 8.42086 12.7894 8.94001V14.74C12.7921 14.991 12.6942 15.2327 12.5176 15.4112C12.341 15.5896 12.1004 15.69 11.8494 15.69H11.8394ZM14.9394 13.54H15.1594H15.1694C15.6846 13.5345 16.0994 13.1153 16.0994 12.6V11.11C16.0939 10.5948 15.6746 10.18 15.1594 10.18H14.9394C14.4241 10.18 14.0049 10.5948 13.9994 11.11V12.6C13.9994 13.1192 14.4202 13.54 14.9394 13.54Z" fill="#696871"/>
</svg>
