<svg width="101" height="48" viewBox="0 0 101 48" fill="none" xmlns="http://www.w3.org/2000/svg">
<path d="M0.319458 28.79H3.31946V43.5H0.319458V28.79Z" fill="#696871"/>
<path fill-rule="evenodd" clip-rule="evenodd" d="M8.34898 33.5194C6.35388 34.3491 5.0554 36.2993 5.05944 38.46C5.04591 39.8795 5.60449 41.2446 6.60918 42.2474C7.61387 43.2502 8.98002 43.8062 10.3994 43.79C12.5602 43.79 14.508 42.4879 15.3339 40.4912C16.1599 38.4946 15.7011 36.197 14.1718 34.6705C12.6425 33.1441 10.3441 32.6897 8.34898 33.5194ZM10.3605 36.2004C11.6337 36.1785 12.6865 37.187 12.7194 38.46C12.7532 39.0905 12.5217 39.7063 12.081 40.1584C11.6403 40.6105 11.0306 40.8577 10.3994 40.84C9.12605 40.8396 8.091 39.8129 8.0803 38.5395C8.06961 37.2662 9.08727 36.2222 10.3605 36.2004Z" fill="#696871"/>
<path fill-rule="evenodd" clip-rule="evenodd" d="M27.7994 43V33.42L24.8494 33.45V34.45C24.1311 33.5739 23.0412 33.0883 21.9094 33.14C19.0817 33.14 16.7894 35.4323 16.7894 38.26C16.7894 41.0877 19.0817 43.38 21.9094 43.38C23.0421 43.4366 24.134 42.95 24.8494 42.07V43C24.9075 43.618 24.6754 44.228 24.221 44.651C23.7667 45.074 23.1417 45.262 22.5294 45.16C21.59 45.2377 20.6983 44.7344 20.2794 43.89L17.6994 45.38C18.7079 47.0215 20.5482 47.9629 22.4694 47.82C25.1494 47.82 27.7994 46.39 27.7994 43ZM23.4146 35.9357C24.3223 36.3451 24.8902 37.265 24.8494 38.26C24.868 38.9038 24.6134 39.5254 24.1485 39.9712C23.6836 40.4171 23.0519 40.6454 22.4094 40.6C21.4136 40.5991 20.5182 39.9933 20.1472 39.0692C19.7761 38.1451 20.0039 37.0882 20.7226 36.3989C21.4413 35.7097 22.5068 35.5263 23.4146 35.9357Z" fill="#696871"/>
<path fill-rule="evenodd" clip-rule="evenodd" d="M32.819 33.5194C30.8239 34.3491 29.5254 36.2993 29.5295 38.46C29.5159 39.8795 30.0745 41.2446 31.0792 42.2474C32.0839 43.2502 33.4501 43.8062 34.8695 43.79C37.0302 43.79 38.978 42.4879 39.8039 40.4912C40.6299 38.4946 40.1712 36.197 38.6419 34.6705C37.1126 33.1441 34.8141 32.6897 32.819 33.5194ZM34.8305 36.2004C36.1037 36.1785 37.1565 37.187 37.1895 38.46H37.1695C37.2029 39.0869 36.9741 39.6995 36.5378 40.1509C36.1016 40.6024 35.4972 40.852 34.8695 40.84C33.5961 40.8396 32.561 39.8129 32.5503 38.5395C32.5396 37.2662 33.5573 36.2222 34.8305 36.2004Z" fill="#696871"/>
<path fill-rule="evenodd" clip-rule="evenodd" d="M43.4195 28.9C42.4143 28.9 41.5995 29.7148 41.5995 30.72C41.605 31.7228 42.4166 32.5345 43.4195 32.54C44.4246 32.54 45.2395 31.7251 45.2395 30.72C45.2395 29.7148 44.4246 28.9 43.4195 28.9ZM44.9095 33.42H41.9095V43.5H44.9095V33.42Z" fill="#696871"/>
<path fill-rule="evenodd" clip-rule="evenodd" d="M56.6935 42.1258C57.5964 41.1252 58.0629 39.8057 57.9894 38.46C58.0602 37.1159 57.5924 35.799 56.6898 34.8006C55.7871 33.8022 54.5238 33.2046 53.1794 33.14C52.0467 33.0856 50.948 33.536 50.1794 34.37V33.42H47.1794V47.56H50.1794V42.56C50.948 43.3939 52.0467 43.8444 53.1794 43.79C54.5257 43.7254 55.7905 43.1264 56.6935 42.1258ZM52.57 36.1208C53.8796 36.1098 54.9563 37.1507 54.9894 38.46H54.9694C55.017 39.1223 54.7759 39.7728 54.3083 40.2443C53.8407 40.7158 53.1921 40.9621 52.5294 40.92C51.2202 40.8868 50.1792 39.8101 50.1903 38.5005C50.2014 37.1908 51.2603 36.1319 52.57 36.1208Z" fill="#696871"/>
<path d="M67.3294 40.48C67.3294 42.8 65.3294 43.79 63.1294 43.79C61.3315 43.9492 59.6173 42.9991 58.7994 41.39L61.4194 39.9C61.6386 40.6495 62.3505 41.1449 63.1294 41.09C63.8594 41.09 64.2194 40.86 64.2194 40.46C64.2194 39.35 59.2194 39.94 59.2194 36.46C59.2194 34.26 61.0794 33.15 63.2194 33.15C64.8276 33.1011 66.3358 33.928 67.1594 35.31L64.5294 36.69C64.2921 36.1504 63.7589 35.8015 63.1694 35.8C62.6494 35.8 62.3294 36 62.3294 36.37C62.3694 37.52 67.3294 36.75 67.3294 40.48Z" fill="#696871"/>
<path d="M78.3695 33.42V43.5H75.3695V42.56C74.6616 43.4072 73.591 43.8644 72.4895 43.79C70.4895 43.79 68.7195 42.34 68.7195 39.61V33.42H71.7195V39.17C71.6661 39.6662 71.8387 40.1601 72.1897 40.515C72.5407 40.8698 73.0327 41.0479 73.5295 41C74.6295 41 75.3995 40.36 75.3995 38.93V33.42H78.3695Z" fill="#696871"/>
<path d="M95.7094 37.32V43.5H92.7094V37.58C92.7094 36.58 92.2194 35.92 91.2594 35.92C90.2994 35.92 89.6794 36.63 89.6794 37.82V43.5H86.6794V37.58C86.6794 36.58 86.1994 35.92 85.2294 35.92C84.2594 35.92 83.6594 36.63 83.6594 37.82V43.5H80.6594V33.42H83.6594V34.35C84.2965 33.5155 85.3126 33.0601 86.3594 33.14C87.4119 33.0889 88.4141 33.5938 88.9994 34.47C89.6797 33.5545 90.7823 33.0523 91.9194 33.14C94.1994 33.14 95.7094 34.8 95.7094 37.32Z" fill="#696871"/>
<path d="M98.2695 33.36C99.5066 33.36 100.509 32.3571 100.509 31.12C100.509 29.8829 99.5066 28.88 98.2695 28.88C97.0324 28.88 96.0295 29.8829 96.0295 31.12C96.0295 32.3571 97.0324 33.36 98.2695 33.36Z" fill="#696871"/>
<path d="M34.2695 21.16C40.0629 21.16 44.7595 16.4635 44.7595 10.67C44.7595 4.87653 40.0629 0.179993 34.2695 0.179993C28.476 0.179993 23.7795 4.87653 23.7795 10.67C23.7795 16.4635 28.476 21.16 34.2695 21.16Z" fill="#696871"/>
<path d="M57.7194 21.16C63.5129 21.16 68.2094 16.4635 68.2094 10.67C68.2094 4.87653 63.5129 0.179993 57.7194 0.179993C51.926 0.179993 47.2294 4.87653 47.2294 10.67C47.2294 16.4635 51.926 21.16 57.7194 21.16Z" fill="#696871"/>
<rect x="0.339478" y="0.179993" width="20.97" height="20.97" fill="#696871"/>
</svg>
