<svg width="119" height="24" viewBox="0 0 119 24" fill="none" xmlns="http://www.w3.org/2000/svg">
<path d="M38.4094 19.39C37.8146 19.4222 37.2263 19.2531 36.7394 18.91C36.3264 18.6038 36.0907 18.1138 36.1094 17.6V8.33C36.0995 8.25047 36.1269 8.17084 36.1836 8.11418C36.2402 8.05751 36.3199 8.03015 36.3994 8.04H38.0794C38.2694 8.04 38.3594 8.14 38.3594 8.33V16.88C38.3594 17.26 38.5294 17.45 38.8794 17.45C39.0278 17.4561 39.1762 17.4393 39.3194 17.4C39.5194 17.4 39.6294 17.46 39.6394 17.64L39.7894 18.89C39.804 18.9637 39.7859 19.0402 39.7399 19.0996C39.6939 19.159 39.6244 19.1956 39.5494 19.2C39.1814 19.3216 38.7969 19.3856 38.4094 19.39Z" fill="#696871"/>
<path fill-rule="evenodd" clip-rule="evenodd" d="M41.8594 18.32C43.6007 19.7587 46.1181 19.7587 47.8594 18.32V18.31C49.3655 16.7394 49.3655 14.2607 47.8594 12.69C46.1153 11.2592 43.6035 11.2592 41.8594 12.69C40.3151 14.249 40.3151 16.7611 41.8594 18.32ZM46.2994 17C45.4878 17.7352 44.251 17.7352 43.4394 17C42.7063 16.1571 42.7063 14.9029 43.4394 14.06C44.251 13.3249 45.4878 13.3249 46.2994 14.06C47.0325 14.9029 47.0325 16.1571 46.2994 17Z" fill="#696871"/>
<path fill-rule="evenodd" clip-rule="evenodd" d="M58.5194 12.16C58.5194 11.97 58.4294 11.87 58.2394 11.87L56.5794 11.88C56.5015 11.8734 56.4248 11.9023 56.3705 11.9585C56.3162 12.0147 56.2901 12.0924 56.2994 12.17V12.33C55.6892 11.8632 54.9374 11.6197 54.1694 11.64C53.1159 11.6024 52.0918 11.9919 51.3294 12.72C49.8308 14.2704 49.8308 16.7296 51.3294 18.28C52.0882 19.0148 53.1138 19.4084 54.1694 19.37C54.9158 19.3912 55.6479 19.1624 56.2494 18.72V19.35C56.2698 19.8133 56.1 20.2649 55.7794 20.6C55.4286 20.9202 54.9637 21.086 54.4894 21.06C54.1003 21.0678 53.7153 20.9785 53.3694 20.8C53.0856 20.6465 52.8684 20.3937 52.7594 20.09C52.7043 19.955 52.5751 19.865 52.4294 19.86H50.7494C50.4794 19.86 50.4794 19.95 50.4794 20.15C50.6201 20.9694 51.0945 21.6936 51.7894 22.15C52.5945 22.6719 53.5405 22.9337 54.4994 22.9C55.561 22.9468 56.6008 22.5894 57.4094 21.9C58.1471 21.2539 58.5548 20.31 58.5194 19.33V12.16ZM55.7294 17C55.3828 17.39 54.881 17.6061 54.3594 17.59C53.8322 17.6052 53.3247 17.3898 52.9694 17C52.6107 16.5882 52.4214 16.0558 52.4394 15.51C52.4174 14.9588 52.6111 14.4207 52.9794 14.01C53.3339 13.6191 53.842 13.4034 54.3694 13.42C54.8862 13.4029 55.384 13.6153 55.7294 14C56.4132 14.8831 56.4132 16.1169 55.7294 17Z" fill="#696871"/>
<path fill-rule="evenodd" clip-rule="evenodd" d="M61.1493 18.3201C62.8934 19.7509 65.4052 19.7509 67.1493 18.3201V18.3101C68.6554 16.7394 68.6554 14.2607 67.1493 12.6901C65.4038 11.2631 62.8948 11.2631 61.1493 12.6901C59.642 14.264 59.642 16.7461 61.1493 18.3201ZM64.1593 17.55C63.6251 17.5665 63.1065 17.3684 62.7193 17.0001C61.9989 16.1524 61.9989 14.9077 62.7193 14.0601C63.1065 13.6917 63.6251 13.4936 64.1593 13.5101C64.6901 13.4963 65.2045 13.6942 65.5893 14.0601C66.3096 14.9077 66.3096 16.1524 65.5893 17.0001C65.2045 17.3659 64.6901 17.5638 64.1593 17.55Z" fill="#696871"/>
<path fill-rule="evenodd" clip-rule="evenodd" d="M69.9794 10.17C70.5261 10.6486 71.3426 10.6486 71.8894 10.17C72.1316 9.94142 72.2689 9.62308 72.2689 9.29002C72.2689 8.95695 72.1316 8.63861 71.8894 8.41002C71.3379 7.94422 70.5308 7.94422 69.9794 8.41002C69.7371 8.63861 69.5999 8.95695 69.5999 9.29002C69.5999 9.62308 69.7371 9.94142 69.9794 10.17ZM70.4294 18.91C70.9176 19.2504 71.5049 19.4192 72.0994 19.39C72.4902 19.3864 72.8781 19.3223 73.2494 19.2C73.3244 19.1957 73.3939 19.159 73.4399 19.0996C73.4859 19.0402 73.504 18.9638 73.4894 18.89L73.3394 17.64C73.3294 17.46 73.2194 17.4 73.0194 17.4C72.8726 17.4386 72.721 17.4555 72.5694 17.45C72.2294 17.45 72.0594 17.26 72.0594 16.88V12.16C72.0594 11.97 71.9694 11.87 71.7794 11.87H70.0994C70.0198 11.8602 69.9402 11.8875 69.8836 11.9442C69.8269 12.0009 69.7995 12.0805 69.8094 12.16V17.6C69.7918 18.1113 70.0228 18.5995 70.4294 18.91Z" fill="#696871"/>
<path fill-rule="evenodd" clip-rule="evenodd" d="M82.5293 12.71C81.7614 11.9778 80.7295 11.5881 79.6693 11.63C78.7436 11.6099 77.8503 11.9715 77.1993 12.63C76.856 11.9592 76.14 11.5636 75.3893 11.63C75.0213 11.6233 74.6552 11.6843 74.3093 11.81C74.1644 11.8521 74.0686 11.9896 74.0793 12.14V13.32C74.0793 13.48 74.1893 13.56 74.4093 13.56H74.7393C74.9019 13.5362 75.0663 13.5906 75.1825 13.7068C75.2987 13.8231 75.3532 13.9874 75.3293 14.15V22.35C75.3148 22.4279 75.3395 22.5079 75.3955 22.5638C75.4515 22.6198 75.5315 22.6446 75.6093 22.63H77.2893C77.4793 22.63 77.5793 22.54 77.5793 22.35V18.74C78.1866 19.1785 78.9204 19.4067 79.6693 19.39C80.7315 19.4328 81.765 19.0389 82.5293 18.3C83.9964 16.7255 83.9964 14.2846 82.5293 12.71ZM79.4893 17.5895C78.9681 17.5895 78.4696 17.3766 78.1093 17C77.748 16.574 77.559 16.0283 77.5793 15.47C77.5561 14.9114 77.7454 14.3646 78.1093 13.94C78.4696 13.5635 78.9681 13.3505 79.4893 13.3505C80.0105 13.3505 80.509 13.5635 80.8693 13.94C81.2477 14.3573 81.4455 14.9074 81.4193 15.47C81.4422 16.0322 81.2449 16.5811 80.8693 17C80.509 17.3766 80.0105 17.5895 79.4893 17.5895Z" fill="#696871"/>
<path d="M88.3494 19.39C87.4517 19.4269 86.5615 19.2122 85.7794 18.77C85.1437 18.3871 84.7168 17.7357 84.6194 17C84.6194 16.8 84.6894 16.7 84.9094 16.7H86.3794C86.522 16.7056 86.6494 16.7905 86.7094 16.92C86.9194 17.46 87.4694 17.73 88.3494 17.73C88.6563 17.744 88.962 17.6822 89.2394 17.55C89.4344 17.4619 89.5651 17.2736 89.5794 17.06C89.5794 16.8 89.4194 16.62 89.0994 16.5C88.7198 16.3737 88.3274 16.2898 87.9294 16.25C87.4579 16.1966 86.9902 16.1131 86.5294 16C86.0812 15.8986 85.6737 15.6652 85.3594 15.33C84.9852 14.8695 84.8191 14.2743 84.9006 13.6866C84.9821 13.0988 85.304 12.5713 85.7894 12.23C86.5102 11.7709 87.3559 11.5472 88.2094 11.59C89.0358 11.5621 89.8534 11.7665 90.5694 12.18C91.1538 12.511 91.5578 13.0877 91.6694 13.75C91.6694 13.95 91.5794 14.05 91.3994 14.05H89.9194C89.7918 14.0576 89.6727 13.9861 89.6194 13.87C89.5205 13.6332 89.3343 13.4434 89.0994 13.34C88.8344 13.2014 88.5384 13.1325 88.2394 13.14C87.9462 13.1241 87.6538 13.1825 87.3894 13.31C87.1987 13.3836 87.072 13.5657 87.0694 13.77C87.0825 14.0507 87.2772 14.2901 87.5494 14.36C87.9334 14.5047 88.3326 14.6054 88.7394 14.66C89.2071 14.7216 89.6711 14.8083 90.1294 14.92C90.5776 15.0215 90.9851 15.2548 91.2994 15.59C91.639 15.963 91.8154 16.4563 91.7894 16.96C91.8069 17.6632 91.4538 18.3239 90.8594 18.7C90.1122 19.1797 89.2367 19.4203 88.3494 19.39Z" fill="#696871"/>
<path d="M102.359 18.89C102.371 18.9617 102.353 19.035 102.31 19.0934C102.266 19.1517 102.201 19.1901 102.129 19.2C101.764 19.3192 101.383 19.3832 100.999 19.39C100.226 19.47 99.4678 19.1401 98.9993 18.52C98.2929 19.1273 97.3796 19.4389 96.4493 19.39C95.5759 19.4302 94.7261 19.0998 94.1093 18.48C93.4973 17.8311 93.176 16.9609 93.2193 16.07V12.16C93.2193 11.97 93.3093 11.87 93.4993 11.87H95.1793C95.3693 11.87 95.4593 11.97 95.4593 12.16V15.77C95.4411 16.2198 95.5948 16.6596 95.8893 17C96.1867 17.3155 96.6061 17.4869 97.0393 17.47C97.482 17.4894 97.9141 17.3309 98.2393 17.03C98.5474 16.7126 98.7103 16.2818 98.6893 15.84V12.16C98.6893 11.97 98.7793 11.87 98.9693 11.87H100.669C100.859 11.87 100.949 11.97 100.949 12.16V16.87C100.949 17.26 101.119 17.45 101.449 17.45C101.604 17.456 101.759 17.4391 101.909 17.4C101.986 17.3785 102.068 17.3933 102.132 17.4401C102.197 17.4869 102.236 17.5605 102.239 17.64L102.359 18.89Z" fill="#696871"/>
<path d="M118.249 18.89C118.267 18.9625 118.252 19.0393 118.208 19.0993C118.163 19.1593 118.094 19.1962 118.019 19.2C117.648 19.3209 117.26 19.3849 116.869 19.39C116.275 19.4207 115.687 19.2517 115.199 18.91C114.771 18.6127 114.52 18.1212 114.529 17.6V15.25C114.55 14.8016 114.4 14.3619 114.109 14.02C113.825 13.7035 113.414 13.531 112.989 13.55C112.606 13.5355 112.238 13.6977 111.989 13.99C111.725 14.3251 111.591 14.7439 111.609 15.17V18.86C111.609 19.05 111.519 19.15 111.329 19.15H109.639C109.56 19.1599 109.48 19.1325 109.424 19.0758C109.367 19.0192 109.339 18.9395 109.349 18.86V15.25C109.371 14.8065 109.233 14.3699 108.959 14.02C108.712 13.7224 108.346 13.5502 107.959 13.55C107.547 13.5334 107.147 13.6934 106.859 13.99C106.573 14.3144 106.426 14.7381 106.449 15.17V18.86C106.459 18.9395 106.432 19.0192 106.375 19.0758C106.319 19.1325 106.239 19.1599 106.159 19.15H104.529C104.339 19.15 104.249 19.05 104.249 18.86V14.15C104.273 13.9874 104.219 13.823 104.103 13.7068C103.986 13.5906 103.822 13.5361 103.659 13.56H103.329C103.109 13.56 102.999 13.48 102.999 13.32V12.14C102.989 11.9896 103.084 11.8521 103.229 11.81C103.575 11.6843 103.941 11.6233 104.309 11.63C105.03 11.5686 105.722 11.9264 106.089 12.55C106.771 11.9036 107.692 11.5703 108.629 11.63C109.543 11.5854 110.423 11.9791 110.999 12.69C111.67 11.9616 112.631 11.5726 113.619 11.63C114.502 11.5887 115.361 11.9187 115.989 12.54C116.603 13.1877 116.925 14.0587 116.879 14.95V16.88C116.879 17.26 117.049 17.45 117.369 17.45C117.524 17.4572 117.68 17.4404 117.829 17.4C118.036 17.4 118.146 17.48 118.159 17.64L118.249 18.89Z" fill="#696871"/>
<path fill-rule="evenodd" clip-rule="evenodd" d="M0.989346 10.57C2.50743 4.46836 7.98667 0.185303 14.2743 0.185303C20.562 0.185303 26.0413 4.46836 27.5593 10.57H26.3593C24.335 10.5402 22.3522 11.1452 20.6893 12.3C20.5934 12.3695 20.4932 12.433 20.3893 12.49H20.2493C20.1455 12.433 20.0453 12.3695 19.9493 12.3C16.5178 9.99254 12.0308 9.99254 8.59935 12.3C8.50338 12.3695 8.40318 12.433 8.29935 12.49H8.15935C8.05551 12.433 7.95531 12.3695 7.85935 12.3C6.19648 11.1452 4.21366 10.5402 2.18935 10.57H0.989346ZM24.1993 16.84C24.8154 16.3603 25.5788 16.1093 26.3593 16.13H27.9693V12.92H26.3593C24.9846 12.9034 23.6412 13.3313 22.5293 14.14C21.245 15.0869 19.4937 15.0869 18.2093 14.14C15.8744 12.5146 12.7743 12.5146 10.4393 14.14C9.155 15.0869 7.40369 15.0869 6.11935 14.14C4.99374 13.321 3.63114 12.8925 2.23935 12.92H0.579346V16.13H2.18935C2.96985 16.1093 3.73333 16.3603 4.34935 16.84C6.68029 18.4666 9.7784 18.4666 12.1093 16.84C12.7261 16.3618 13.4891 16.111 14.2693 16.13C15.0501 16.1076 15.8141 16.3588 16.4293 16.84C18.7643 18.4655 21.8644 18.4655 24.1993 16.84ZM26.3593 21.87C25.5788 21.8493 24.8154 22.1003 24.1993 22.58C21.8644 24.2055 18.7643 24.2055 16.4293 22.58C15.8141 22.0988 15.0501 21.8476 14.2693 21.87C13.4891 21.851 12.7261 22.1018 12.1093 22.58C9.7784 24.2066 6.68029 24.2066 4.34935 22.58C3.73333 22.1003 2.96985 21.8493 2.18935 21.87H0.579346V18.66H2.23935C3.63114 18.6325 4.99374 19.061 6.11935 19.88C7.40369 20.8269 9.155 20.8269 10.4393 19.88C12.7743 18.2546 15.8744 18.2546 18.2093 19.88C19.4937 20.8269 21.245 20.8269 22.5293 19.88C23.6412 19.0713 24.9846 18.6434 26.3593 18.66H27.9693V21.87H26.3593Z" fill="#696871"/>
</svg>
