<svg width="127" height="30" viewBox="0 0 127 30" fill="none" xmlns="http://www.w3.org/2000/svg">
<path fill-rule="evenodd" clip-rule="evenodd" d="M75.2418 8.51584C74.6318 8.79188 74.2508 9.41102 74.2794 10.08L74.2994 10.09C74.3046 10.5126 74.4789 10.9154 74.7834 11.2086C75.0878 11.5017 75.4969 11.6607 75.9194 11.65C76.589 11.6494 77.1909 11.2418 77.4401 10.6203C77.6893 9.99886 77.5357 9.28833 77.052 8.82531C76.5684 8.3623 75.8518 8.23979 75.2418 8.51584ZM39.2494 9.25997H36.0394V22.26H39.2494V9.25997ZM45.5294 12.22C42.5294 12.22 40.5294 14.15 40.5294 17.37C40.5294 20.66 42.4594 22.54 45.5294 22.54C48.5994 22.54 50.5294 20.59 50.5294 17.37C50.5294 14.15 48.5294 12.22 45.5294 12.22ZM47.3494 17.37C47.3494 15.6 46.6594 14.56 45.5594 14.56C44.4594 14.56 43.7794 15.56 43.7794 17.37C43.7794 19.18 44.4594 20.17 45.5594 20.17C46.6594 20.17 47.3694 19.18 47.3694 17.38L47.3494 17.37ZM54.9094 22.93H51.8094L51.8294 22.94C52.0094 24.73 53.7894 26 56.5694 26.01C59.6294 26.01 61.7094 24.54 61.7094 22.19V12.45H58.5294V14.0627C57.9865 12.9758 56.8463 12.3043 55.6194 12.37C53.1094 12.37 51.6194 14.29 51.6194 17.37C51.6194 20.45 53.1794 22.24 55.5294 22.24C56.7873 22.3322 57.9727 21.6457 58.5194 20.5109V22.29C58.5194 23.27 57.8794 23.93 56.6494 23.93C55.9108 24.0247 55.1995 23.6159 54.9094 22.93ZM58.5294 17.37C58.5294 15.8 57.8094 14.81 56.6694 14.81C55.5294 14.81 54.8294 15.81 54.8294 17.37C54.8294 18.93 55.5194 19.85 56.6694 19.85C57.8194 19.85 58.5294 19 58.5294 17.37ZM67.9794 12.22C64.9794 12.22 62.9794 14.15 62.9794 17.37H62.9994C62.9994 20.66 64.9194 22.54 67.9794 22.54C71.0394 22.54 72.9794 20.59 72.9794 17.37C72.9794 14.15 70.9794 12.22 67.9794 12.22ZM69.7994 17.37C69.7994 15.6 69.0994 14.56 68.0094 14.56C66.9194 14.56 66.2294 15.56 66.2294 17.37C66.2294 19.18 66.9094 20.17 68.0094 20.17C69.1094 20.17 69.8194 19.18 69.8194 17.38L69.7994 17.37ZM74.2794 12.44H77.5294V22.3H74.3294L74.2794 12.44ZM85.3294 22.44C87.7794 22.44 89.2194 20.58 89.2194 17.37L89.2794 17.38C89.2794 14.16 87.8294 12.31 85.3094 12.33C84.009 12.2681 82.8093 13.0279 82.3094 14.23H82.2494V12.47H79.0594V25.47H82.2694V20.61H82.3294C82.8469 21.7886 84.0447 22.5192 85.3294 22.44ZM85.9494 17.37C85.9494 15.81 85.2194 14.8 84.0894 14.8C82.9594 14.8 82.2494 15.8 82.2394 17.37C82.2294 18.94 82.9594 19.93 84.0894 19.93C85.2194 19.93 86.0094 19 86.0094 17.38L85.9494 17.37ZM99.0794 15.52C99.0594 13.48 97.3894 12.21 94.6994 12.21L94.7594 12.22C92.0494 12.22 90.3694 13.47 90.3094 15.43C90.3094 16.94 91.3194 17.95 93.2494 18.36L95.1094 18.75C95.8794 18.91 96.1794 19 96.1794 19.53C96.1794 20.06 95.7394 20.36 94.7994 20.36C93.8594 20.36 93.2794 19.93 93.1894 19.2H90.0794C90.2094 21.21 91.9994 22.53 94.7494 22.53C97.4994 22.53 99.3494 21.17 99.3494 19.17C99.3494 17.68 98.5494 16.88 96.5494 16.46L94.4894 16.04C93.7494 15.89 93.3794 15.73 93.3794 15.22C93.3794 14.71 93.7994 14.37 94.6794 14.37C95.5594 14.37 96.1494 14.81 96.1494 15.52H99.0794ZM110.099 22.29H106.989V20.44H106.929C106.571 21.7111 105.378 22.563 104.059 22.49C103.082 22.5218 102.137 22.1347 101.463 21.4261C100.789 20.7175 100.449 19.7548 100.529 18.78V12.45H103.739V18.09C103.739 19.25 104.349 19.88 105.349 19.88C105.824 19.8764 106.274 19.6673 106.583 19.3068C106.892 18.9462 107.029 18.4696 106.959 18V12.45H110.159L110.099 22.29ZM114.769 12.44H111.649L111.669 22.3H114.879V16.48C114.827 16.0706 114.955 15.6588 115.229 15.3503C115.503 15.0418 115.897 14.8667 116.309 14.87C117.189 14.87 117.679 15.4 117.679 16.4V22.3H120.739V16.46C120.684 16.0553 120.808 15.6465 121.079 15.3409C121.35 15.0353 121.741 14.8633 122.149 14.87C123.059 14.87 123.529 15.43 123.529 16.43V22.3H126.759V15.61C126.826 14.7239 126.511 13.8517 125.894 13.2121C125.277 12.5725 124.417 12.2262 123.529 12.26C122.171 12.1964 120.94 13.054 120.529 14.35H120.389C120.152 13.0508 118.965 12.1456 117.649 12.26C116.349 12.2335 115.194 13.0882 114.839 14.34H114.769V12.44Z" fill="#696871"/>
<path fill-rule="evenodd" clip-rule="evenodd" d="M29.6894 10.11C29.6896 6.03639 27.1896 2.38026 23.3935 0.902517C19.5974 -0.575227 15.2835 0.42839 12.5294 3.42999H0.0494385V29.77H26.3994V17.46C28.4911 15.5891 29.6875 12.9163 29.6894 10.11ZM24.6194 10.11C24.6235 12.0604 23.4517 13.821 21.6509 14.5702C19.8501 15.3194 17.7753 14.9095 16.3947 13.5318C15.0142 12.1541 14.5999 10.0801 15.3454 8.27778C16.0908 6.47544 17.849 5.3 19.7994 5.29999C22.4576 5.29999 24.6139 7.45189 24.6194 10.11ZM5.11944 24.7H21.3294V19.87C20.8237 19.9538 20.3121 19.9973 19.7994 20C14.3396 19.9945 9.91495 15.5698 9.90944 10.11C9.91383 9.57005 9.96401 9.03145 10.0594 8.49999H5.11944V24.7Z" fill="#696871"/>
</svg>
