<svg width="40" height="41" viewBox="0 0 40 41" fill="none" xmlns="http://www.w3.org/2000/svg">
<path d="M29.9254 18.1927C28.7971 19.3279 28.2332 20.9068 28.3872 22.5L28.3607 22.4735C28.519 24.3484 27.8427 26.1976 26.5123 27.528C25.1818 28.8585 23.3326 29.5347 21.4577 29.3765L21.4842 29.4029C19.2142 29.1917 17.0555 30.4264 16.0867 32.4902C15.118 34.5539 15.5473 37.0035 17.1601 38.6148C18.7729 40.2262 21.2228 40.6532 23.2857 39.6826C25.3486 38.712 26.5814 36.5522 26.368 34.2824L26.396 34.3088C26.2377 32.434 26.914 30.5847 28.2444 29.2543C29.5748 27.9239 31.4241 27.2476 33.2989 27.4059L33.271 27.3794C35.7658 27.6038 38.0872 26.0826 38.8774 23.7056C39.6676 21.3287 38.719 18.7204 36.5864 17.4064C34.4538 16.0925 31.6976 16.418 29.9298 18.1927H29.9254Z" fill="#5454D4"/>
<path d="M19.0769 25.9353L19.0489 25.9088C20.6431 26.0695 22.2252 25.5057 23.3586 24.3732C24.492 23.2407 25.0569 21.659 24.8974 20.0647L24.9254 20.0912C24.7671 18.2163 25.4434 16.3671 26.7738 15.0367C28.1042 13.7062 29.9535 13.03 31.8283 13.1882L31.8004 13.1618C34.0706 13.375 36.2306 12.1416 37.2009 10.0781C38.1711 8.01464 37.743 5.56435 36.1307 3.95202C34.5184 2.3397 32.0681 1.91166 30.0046 2.88188C27.9412 3.8521 26.7078 6.01217 26.921 8.28236L26.8945 8.25442C27.0533 10.1294 26.3772 11.979 25.0466 13.3095C23.7161 14.64 21.8665 15.3161 19.9916 15.1574L20.018 15.1853C18.4238 15.0247 16.8418 15.5884 15.7084 16.7209C14.575 17.8535 14.0101 19.4351 14.1695 21.0294L14.143 21.0029C14.3008 22.8776 13.6243 24.7266 12.294 26.0569C10.9637 27.3872 9.11479 28.0636 7.24009 27.9059L7.26656 27.9324C4.99638 27.7192 2.83631 28.9526 1.86609 31.016C0.895871 33.0795 1.3239 35.5298 2.93623 37.1421C4.54856 38.7544 6.99885 39.1825 9.06231 38.2122C11.1258 37.242 12.3592 35.082 12.146 32.8118L12.1739 32.8382C12.0157 30.9634 12.6919 29.1142 14.0223 27.7837C15.3528 26.4533 17.202 25.777 19.0769 25.9353Z" fill="#FF7143"/>
<path d="M9.22099 22.9838C10.3495 21.8488 10.9129 20.2695 10.7578 18.6765L10.7857 18.7029C10.6273 16.8276 11.304 14.9778 12.6351 13.6472C13.9662 12.3167 15.8163 11.6408 17.6916 11.8L17.6636 11.7735C19.933 11.9861 22.0921 10.7529 23.0617 8.69004C24.0313 6.62724 23.6033 4.17791 21.9916 2.56618C20.3798 0.954447 17.9305 0.526442 15.8677 1.49607C13.8049 2.4657 12.5716 4.62473 12.7842 6.89412L12.7578 6.86765C12.916 8.74248 12.2397 10.5917 10.9093 11.9222C9.5789 13.2526 7.72964 13.9289 5.85481 13.7706L5.88128 13.7971C3.38658 13.5733 1.06564 15.0949 0.275915 17.4719C-0.513813 19.8488 0.435108 22.4568 2.56768 23.7705C4.70026 25.0841 7.45632 24.7584 9.22393 22.9838H9.22099Z" fill="#5454D4"/>
</svg>
