<svg width="200" height="41" viewBox="0 0 200 41" fill="none" xmlns="http://www.w3.org/2000/svg">
<path d="M29.9254 18.1927C28.7971 19.3279 28.2332 20.9068 28.3872 22.5L28.3607 22.4735C28.519 24.3484 27.8427 26.1976 26.5123 27.528C25.1818 28.8585 23.3326 29.5347 21.4577 29.3765L21.4842 29.4029C19.2142 29.1917 17.0555 30.4264 16.0867 32.4902C15.118 34.5539 15.5473 37.0035 17.1601 38.6148C18.7729 40.2262 21.2228 40.6532 23.2857 39.6826C25.3486 38.712 26.5814 36.5522 26.368 34.2824L26.396 34.3088C26.2377 32.434 26.914 30.5847 28.2444 29.2543C29.5748 27.9239 31.4241 27.2476 33.2989 27.4059L33.271 27.3794C35.7658 27.6038 38.0872 26.0826 38.8774 23.7056C39.6676 21.3287 38.719 18.7204 36.5864 17.4064C34.4538 16.0925 31.6976 16.418 29.9298 18.1927H29.9254Z" fill="#5454D4"/>
<path d="M19.0769 25.9353L19.0489 25.9088C20.6431 26.0695 22.2252 25.5057 23.3586 24.3732C24.492 23.2407 25.0569 21.659 24.8974 20.0647L24.9254 20.0912C24.7671 18.2163 25.4434 16.3671 26.7738 15.0367C28.1042 13.7062 29.9535 13.03 31.8283 13.1882L31.8004 13.1618C34.0706 13.375 36.2306 12.1416 37.2009 10.0781C38.1711 8.01464 37.743 5.56435 36.1307 3.95202C34.5184 2.3397 32.0681 1.91166 30.0046 2.88188C27.9412 3.8521 26.7078 6.01217 26.921 8.28236L26.8945 8.25442C27.0533 10.1294 26.3772 11.979 25.0466 13.3095C23.7161 14.64 21.8665 15.3161 19.9916 15.1574L20.018 15.1853C18.4238 15.0247 16.8418 15.5884 15.7084 16.7209C14.575 17.8535 14.0101 19.4351 14.1695 21.0294L14.143 21.0029C14.3008 22.8776 13.6243 24.7266 12.294 26.0569C10.9637 27.3872 9.11479 28.0636 7.24009 27.9059L7.26656 27.9324C4.99638 27.7192 2.83631 28.9526 1.86609 31.016C0.895871 33.0795 1.3239 35.5298 2.93623 37.1421C4.54856 38.7544 6.99885 39.1825 9.06231 38.2122C11.1258 37.242 12.3592 35.082 12.146 32.8118L12.1739 32.8382C12.0157 30.9634 12.6919 29.1142 14.0223 27.7837C15.3528 26.4533 17.202 25.777 19.0769 25.9353Z" fill="#FF7143"/>
<path d="M9.22099 22.9838C10.3495 21.8488 10.9129 20.2695 10.7578 18.6765L10.7857 18.7029C10.6273 16.8276 11.304 14.9778 12.6351 13.6472C13.9662 12.3167 15.8163 11.6408 17.6916 11.8L17.6636 11.7735C19.933 11.9861 22.0921 10.7529 23.0617 8.69004C24.0313 6.62724 23.6033 4.17791 21.9916 2.56618C20.3798 0.954447 17.9305 0.526442 15.8677 1.49607C13.8049 2.4657 12.5716 4.62473 12.7842 6.89412L12.7578 6.86765C12.916 8.74248 12.2397 10.5917 10.9093 11.9222C9.5789 13.2526 7.72964 13.9289 5.85481 13.7706L5.88128 13.7971C3.38658 13.5733 1.06564 15.0949 0.275915 17.4719C-0.513813 19.8488 0.435108 22.4568 2.56768 23.7705C4.70026 25.0841 7.45632 24.7584 9.22393 22.9838H9.22099Z" fill="#5454D4"/>
<path d="M54.7754 8.31618H59.143V29.5706H54.7754V8.31618Z" fill="#19191B"/>
<path fill-rule="evenodd" clip-rule="evenodd" d="M66.3584 15.1418C63.4761 16.3459 61.6041 19.169 61.6166 22.2926C61.6014 24.3409 62.4105 26.3092 63.8618 27.7546C65.3131 29.2001 67.2846 30.0013 69.3327 29.9779C72.4565 29.9779 75.272 28.0946 76.4645 25.2074C77.657 22.3203 76.9911 18.999 74.7779 16.7947C72.5647 14.5903 69.2408 13.9378 66.3584 15.1418ZM69.2707 19.0359C71.1085 19.0019 72.6304 20.4552 72.6813 22.2926C72.7309 23.2035 72.3973 24.0937 71.7613 24.7476C71.1252 25.4015 70.2447 25.7596 69.3327 25.7353C67.4946 25.7354 65.9997 24.2544 65.9827 22.4163C65.9657 20.5783 67.4329 19.0698 69.2707 19.0359Z" fill="#19191B"/>
<path fill-rule="evenodd" clip-rule="evenodd" d="M94.4563 28.8368V15.0132L90.2048 15.0103V16.4956C89.1677 15.2266 87.5904 14.5244 85.9533 14.6029C81.96 14.7289 78.788 18.0025 78.788 21.9978C78.788 25.9931 81.96 29.2667 85.9533 29.3926C87.5904 29.4712 89.1677 28.769 90.2048 27.5V28.8309C90.2779 29.709 89.948 30.5727 89.3082 31.1785C88.6684 31.7843 87.7879 32.0665 86.9151 31.9456C85.5345 32.0865 84.2115 31.3555 83.596 30.1118L79.8695 32.2662C81.3274 34.6416 83.9902 36.0036 86.7695 35.7956C90.6416 35.7956 94.4563 33.7279 94.4563 28.8368ZM88.1309 18.6356C89.4447 19.2281 90.2663 20.5599 90.2063 22C90.2335 22.9298 89.8662 23.8278 89.1953 24.4722C88.5243 25.1165 87.6122 25.4471 86.6842 25.3824C85.2429 25.3841 83.9454 24.5093 83.4065 23.1725C82.8676 21.8358 83.1957 20.3056 84.2353 19.3073C85.2748 18.309 86.817 18.043 88.1309 18.6356Z" fill="#19191B"/>
<path fill-rule="evenodd" clip-rule="evenodd" d="M101.672 15.1418C98.7893 16.3459 96.9173 19.169 96.9298 22.2926C96.9147 24.3409 97.7238 26.3092 99.175 27.7546C100.626 29.2001 102.598 30.0013 104.646 29.9779C107.77 29.9779 110.585 28.0946 111.778 25.2074C112.97 22.3203 112.304 18.999 110.091 16.7947C107.878 14.5903 104.554 13.9378 101.672 15.1418ZM104.584 19.0359C106.422 19.0019 107.944 20.4552 107.995 22.2926C108.044 23.2035 107.711 24.0937 107.074 24.7476C106.438 25.4015 105.558 25.7596 104.646 25.7353C102.808 25.7354 101.313 24.2544 101.296 22.4163C101.279 20.5783 102.746 19.0698 104.584 19.0359Z" fill="#19191B"/>
<path fill-rule="evenodd" clip-rule="evenodd" d="M116.017 8.69066C115.037 9.09628 114.399 10.0518 114.399 11.1118C114.413 12.5531 115.578 13.718 117.02 13.7324C118.079 13.7324 119.035 13.0939 119.441 12.1146C119.846 11.1354 119.622 10.0082 118.873 9.25873C118.123 8.50925 116.996 8.28504 116.017 8.69066ZM119.209 15.0132H114.84L114.834 29.5721H119.209V15.0132Z" fill="#19191B"/>
<path fill-rule="evenodd" clip-rule="evenodd" d="M136.187 27.5823C137.493 26.1398 138.17 24.236 138.068 22.2926C138.171 20.349 137.494 18.4446 136.188 17.0016C134.881 15.5587 133.054 14.6964 131.109 14.6059C129.47 14.5165 127.878 15.1682 126.772 16.3809V15.0132H122.405V35.3941H126.772V28.2015C127.878 29.4151 129.47 30.0674 131.109 29.9779C133.053 29.887 134.881 29.0248 136.187 27.5823ZM130.179 18.9152C132.081 18.8834 133.653 20.391 133.7 22.2926C133.766 23.2377 133.426 24.166 132.764 24.8442C132.103 25.5225 131.184 25.8862 130.237 25.8441C128.335 25.8443 126.788 24.3108 126.772 22.4086C126.756 20.5064 128.277 18.947 130.179 18.9152Z" fill="#19191B"/>
<path d="M151.546 25.2029C151.546 28.5515 148.636 29.9779 145.492 29.9779C142.892 30.2134 140.412 28.8407 139.231 26.5132L143.015 24.3588C143.33 25.4424 144.36 26.1582 145.486 26.0765C146.533 26.0765 147.058 25.7559 147.058 25.175C147.058 23.5721 139.894 24.4176 139.894 19.3809C139.894 16.2059 142.574 14.6059 145.602 14.6059C147.92 14.5325 150.095 15.7258 151.278 17.7206L147.552 19.7294C147.218 18.9498 146.45 18.4455 145.602 18.4485C144.844 18.4485 144.378 18.7426 144.378 19.2632C144.384 20.9235 151.546 19.8162 151.546 25.2029Z" fill="#19191B"/>
<path d="M167.5 15.0132V29.5721H163.133V28.2029C162.111 29.4284 160.563 30.0892 158.971 29.9794C156.03 29.9794 153.53 27.8838 153.53 23.95V15.0132H157.897V23.3103C157.824 24.0121 158.062 24.7109 158.55 25.2208C159.038 25.7308 159.725 26.0002 160.43 25.9574C162.031 25.9574 163.137 25.0265 163.137 22.9588V15.0176L167.5 15.0132Z" fill="#19191B"/>
<path d="M192.545 20.6323V29.5706H188.177V21.0103C188.177 19.5544 187.478 18.6235 186.081 18.6235C184.625 18.6235 183.809 19.6426 183.809 21.3603V29.5706H179.443V21.0103C179.443 19.5544 178.745 18.6235 177.346 18.6235C175.89 18.6235 175.075 19.6426 175.075 21.3603V29.5706H170.708V15.0118H175.075V16.35C175.995 15.1437 177.464 14.4864 178.977 14.6044C180.497 14.53 181.945 15.2592 182.79 16.525C183.774 15.2017 185.368 14.4764 187.012 14.6044C190.355 14.6059 192.545 16.9926 192.545 20.6323Z" fill="#19191B"/>
<path d="M196.239 14.9235C198.029 14.9235 199.48 13.4724 199.48 11.6824C199.48 9.8923 198.029 8.44118 196.239 8.44118C194.449 8.44118 192.997 9.8923 192.997 11.6824C192.997 13.4724 194.449 14.9235 196.239 14.9235Z" fill="#19191B"/>
</svg>
